<svg width="90" height="90" fill="none" xmlns="http://www.w3.org/2000/svg"><path d="M62.584 35.22l-2.077-1.392C55.87 30.835 50.538 29.234 45 29.234a27.978 27.978 0 00-15.507 4.664l-2.077 1.322-.07-2.714v-.766c0-11.972 6.508-22.83 17.032-28.26L45 3.202l.624.278c10.523 5.5 17.03 16.288 17.03 28.26v.696l-.069 2.785zM45 26.45a30.978 30.978 0 0114.885 3.829C59.33 20.186 53.723 11.206 45 6.334c-8.723 4.873-14.33 13.852-14.815 23.945A30.514 30.514 0 0145 26.45z" fill="#08AF00"/><path d="M31.361 63.62a31.088 31.088 0 01-17.03-5.082l-.623-.417v-.766c.276-10.44 5.676-20.046 14.33-25.754l2.077-1.392.07 2.506c.276 10.58 6.23 20.115 15.507 24.918l2.354 1.253-2.354 1.253c-4.5 2.297-9.346 3.48-14.33 3.48zm-14.884-7.03c4.5 2.783 9.554 4.245 14.815 4.245 3.739 0 7.27-.696 10.662-2.088-8.031-5.22-13.362-13.852-14.4-23.457a29.319 29.319 0 00-11.077 21.3z" fill="#08AF00"/><path d="M58.638 63.62c-5.054 0-9.83-1.184-14.33-3.48l-2.354-1.254 2.353-1.253c9.277-4.803 15.231-14.408 15.508-24.919l.07-2.505L61.96 31.6c8.654 5.708 13.985 15.313 14.262 25.754v.766l-.623.417a30.922 30.922 0 01-16.962 5.081zm-10.661-4.943a27.985 27.985 0 0010.661 2.089 27.795 27.795 0 0014.816-4.246c-.485-8.423-4.5-16.149-11.077-21.3-.97 9.675-6.3 18.307-14.4 23.457z" fill="#08AF00"/><path d="M45 60.418l-.623-.348c-10.178-5.29-16.685-15.731-17.031-27.355v-.766l.623-.418a31.088 31.088 0 0117.03-5.08c6.024 0 11.908 1.74 17.031 5.08l.623.418v.766C62.307 44.339 55.8 54.78 45.623 60.07l-.623.348zM30.183 33.48C30.738 43.504 36.346 52.483 45 57.286c8.654-4.803 14.262-13.852 14.816-23.806A27.795 27.795 0 0045 29.234a27.795 27.795 0 00-14.815 4.246z" fill="#08AF00"/><path d="M55.108 41.276h-2.354v-2.784h2.354v2.784zm-5.192 0h-2.77v-2.784h2.77v2.784zm-5.539 0h-2.77v-2.784h2.77v2.784zm-5.538 0h-2.77v-2.784h2.77v2.784z" fill="#08AF00"/><path d="M31.361 63.62C14.055 63.62 0 49.35 0 31.81S14.054 0 31.361 0C48.67 0 62.724 14.27 62.724 31.81c-.07 17.54-14.123 31.81-31.361 31.81zm0-60.836C15.577 2.784 2.77 15.801 2.77 31.81s12.808 29.025 28.593 29.025c15.715 0 28.592-13.016 28.592-29.025C59.884 15.8 47.077 2.784 31.36 2.784z" fill="#08AF00"/><path d="M58.638 63.62c-17.307 0-31.361-14.27-31.361-31.81C27.347 14.27 41.4 0 58.638 0 75.946 0 90 14.27 90 31.81S75.946 63.62 58.638 63.62zm0-60.836c-15.715 0-28.523 13.017-28.523 29.026s12.808 29.025 28.593 29.025C74.423 60.835 87.3 47.82 87.3 31.81 87.23 15.8 74.423 2.784 58.638 2.784z" fill="#08AF00"/><path d="M45 90c-17.308 0-31.362-14.27-31.362-31.81 0-17.47 14.054-31.74 31.362-31.74 17.307 0 31.361 14.27 31.361 31.81S62.307 90 45 90zm0-60.766c-15.716 0-28.593 13.017-28.593 29.026 0 16.01 12.808 29.026 28.593 29.026 15.715 0 28.592-13.017 28.592-29.026 0-16.01-12.877-29.026-28.592-29.026z" fill="#08AF00"/></svg>