<svg width="82" height="90" fill="none" xmlns="http://www.w3.org/2000/svg"><path d="M41 90l-2.929-.83C21.755 84.46 0 74.976 0 47.007V10.869L41 0l.349.07L82 10.87v36.069C82 74.977 60.245 84.462 43.929 89.1L41 90zM2.79 13.015v33.993c0 26.169 20.569 35.1 36.048 39.53l2.092.624 2.162-.624c15.48-4.43 36.05-13.361 36.05-39.53V13.015L41 2.838 2.79 13.015z" fill="#08AF00"/><path d="M41 82.316l-.837-.208C11.157 73.8 7.461 58.985 7.461 46.938v-30.46L41 7.615l33.468 8.862v30.462c0 22.846-17.501 30.807-32.702 35.169l-.767.207zM10.25 18.623v28.385c0 11.008 3.486 24.715 30.68 32.469 14.294-4.085 30.68-11.492 30.68-32.47V18.624l-30.68-8.17-30.68 8.17z" fill="#08AF00"/><path d="M41 66.877l-19.314-18.97c-2.51-2.492-3.905-5.745-3.905-9.276 0-3.531 1.394-6.785 3.905-9.277l.139-.139c2.51-2.492 5.857-3.807 9.413-3.807a13.52 13.52 0 019.413 3.807l.28.277.278-.277c2.51-2.492 5.857-3.807 9.414-3.807a13.52 13.52 0 019.413 3.807l.209.208c2.51 2.492 3.905 5.746 3.905 9.277 0 3.53-1.395 6.785-3.905 9.277L41 66.877zm-9.762-38.77c-2.789 0-5.508 1.108-7.46 3.047l-.14.138c-2.022 1.939-3.068 4.57-3.068 7.339s1.116 5.33 3.068 7.269L41 63l17.362-17.03c2.023-1.94 3.068-4.57 3.068-7.34 0-2.768-1.115-5.33-3.068-7.338l-.209-.138c-2.022-1.939-4.672-3.046-7.46-3.046-2.79 0-5.44 1.107-7.462 3.046l-2.23 2.215-2.302-2.215c-1.952-1.939-4.602-3.046-7.46-3.046z" fill="#08AF00"/></svg>