<svg width="90" height="79" fill="none" xmlns="http://www.w3.org/2000/svg"><path d="M17.792 36.472h-2.77V24.705c-.415-2.271-2.007-4.68-4.291-4.68H8.723l-.139-2.752h2.077c3.877 0 6.439 3.578 7.062 7.088v12.111h.07z" fill="#08AF00"/><path d="M36.97 62.072H34.2V54.57l-.623-9.634-12.738-12.8c-.347.344-.762.688-.762.688-1.454 1.376-2.146 4.129-.9 5.712l8.1 8.051-1.939 1.927-7.961-7.845-.277-.275-4.57-4.542-4.845-5.093V18.375c-.416-2.271-2.008-4.68-4.293-4.68H2.77l.208 19.682L18.97 60.215l-2.354 1.376L.277 34.132 0 11.08l1.315-.069h2.147c3.876 0 6.438 3.579 7.061 7.089v11.56l4.085 4.266 1.384 1.376a8.19 8.19 0 012.285-4.473c1.662-1.582 1.73-1.651 1.8-1.651l.97-.826 15.368 15.346.693 10.804v7.57h-.139z" fill="#08AF00"/><path d="M42.785 79h-2.77V63.104H14.47V79H11.7V60.351h31.085V79zm32.192-42.528h-2.769V24.361c.554-3.51 3.185-7.088 7.061-7.088h2.078l-.139 2.752H79.2c-2.284 0-3.877 2.409-4.292 4.68v11.767h.07z" fill="#08AF00"/><path d="M55.8 62.072h-2.77v-7.639l.693-10.735 15.37-15.346.968.826c.07.069.139.069 1.731 1.789 1.177 1.101 1.939 2.684 2.216 4.404l1.454-1.445 4.015-4.267V18.1c.554-3.51 3.184-7.088 7.061-7.088h2.077l1.247.137.138 1.239-.208 21.814L73.385 61.66l-2.354-1.377 15.992-26.838.208-19.68h-.623c-2.285 0-3.877 2.408-4.293 4.679V30.76l-4.846 5.093-4.569 4.542a.831.831 0 01-.346.344l-7.892 7.914-2.077-1.858.138-.207 8.1-8.051c1.108-1.583.416-4.267-.97-5.643 0 0-.345-.344-.691-.757l-12.739 12.73-.623 9.635v7.57z" fill="#08AF00"/><path d="M78.3 79h-2.77V63.104H49.986V79h-2.77V60.351H78.3V79zM45.277 40.188L26.86 21.814c-4.915-4.954-4.915-13.006 0-17.96l.14-.138A12.66 12.66 0 0136 0a12.66 12.66 0 019 3.716l.208.206.207-.206a12.66 12.66 0 019-3.716 12.66 12.66 0 019 3.716l.139.138c4.915 4.954 4.915 13.006 0 17.892L45.277 40.188zM36 2.753a9.88 9.88 0 00-6.992 2.89l-.139.137c-3.877 3.854-3.877 10.185 0 14.039l16.408 16.378 16.338-16.31c3.877-3.853 3.877-10.184 0-14.038l-.138-.137a9.666 9.666 0 00-6.993-2.96 9.88 9.88 0 00-6.992 2.89l-2.215 2.203-2.216-2.202C41.192 3.785 38.7 2.753 36 2.753z" fill="#08AF00"/></svg>